<svg width="123" height="50" viewBox="0 0 123 50" fill="none" xmlns="http://www.w3.org/2000/svg">
<g clip-path="url(#clip0)">
<path d="M4.54052 26.7913C4.53561 27.0173 4.56998 27.2335 4.56016 27.4546C4.61911 27.2433 4.63387 27.0173 4.6879 26.811C4.73703 26.6046 4.83528 26.4229 4.9532 26.2657C5.19884 25.9414 5.52308 25.6908 5.87191 25.4599C6.27477 25.1897 6.61865 25.0522 7.0117 24.8851C7.40471 24.723 7.67983 24.6248 7.90091 24.5707L8.18585 24.4921C11.0599 23.8633 13.9585 23.372 16.8669 22.8905C19.7704 22.3943 22.6887 21.9472 25.5971 21.4805L43.087 18.7833L78.0222 13.3055C83.8391 12.4065 89.6559 11.5025 95.4532 10.6722C98.337 10.289 101.245 9.89597 104.159 9.55699C107.072 9.22784 109.976 8.86919 112.85 8.66284C113.886 8.58425 114.933 8.51055 115.935 8.48597C115.886 8.52528 115.841 8.55967 115.797 8.59898L114.913 9.42434C113.793 10.5346 112.776 11.6597 111.818 12.8289C109.892 15.1527 108.109 17.5404 106.409 19.987C105.559 21.2103 104.719 22.4385 103.903 23.6766C103.098 24.9293 102.287 26.1723 101.526 27.4546C105.667 23.1951 109.745 18.8816 114.019 14.9169C115.09 13.9343 116.166 12.9763 117.261 12.1313C117.738 11.7825 118.229 11.4533 118.735 11.1438C118.779 11.1193 118.824 11.0898 118.863 11.0603C118.966 10.9915 119.177 10.8786 119.349 10.7852C119.526 10.6919 119.708 10.574 119.89 10.4708C120.258 10.2301 120.622 10.009 121.044 9.64052C121.142 9.5619 121.26 9.43907 121.369 9.32609C121.428 9.26714 121.477 9.22293 121.541 9.14431L121.727 8.89865C121.84 8.77094 121.997 8.47615 122.105 8.2207C122.13 8.16666 122.16 8.06838 122.184 7.97012C122.213 7.87187 122.233 7.76871 122.248 7.67046C122.268 7.56726 122.282 7.4641 122.287 7.36094C122.292 7.25287 122.287 7.12021 122.272 6.99738C122.223 6.47169 122.027 6.05901 121.762 5.68073C121.639 5.51862 121.541 5.42527 121.413 5.30244C121.295 5.18946 121.152 5.07154 121.069 5.02241C120.976 4.95853 120.877 4.89958 120.779 4.84064L120.627 4.75711L120.514 4.70308C120.361 4.63428 120.189 4.56061 120.047 4.50657C119.787 4.41814 119.507 4.3297 119.285 4.28058C119.04 4.2216 118.814 4.17738 118.603 4.14302C118.377 4.0988 118.165 4.06931 117.959 4.04476C117.748 4.01036 117.541 3.98579 117.34 3.97106C115.724 3.80401 114.201 3.76961 112.678 3.75488C109.641 3.7647 106.654 3.86299 103.672 4.04967L99.2165 4.34443L94.7457 4.74729C91.7782 5.04205 88.8207 5.38597 85.8731 5.77407C82.9204 6.12781 79.9924 6.58961 77.0544 7.0072C65.3273 8.80531 53.6644 10.9473 42.0945 13.561C36.3071 14.858 30.5493 16.2974 24.8159 17.8597C19.1072 19.4662 13.4033 21.1661 7.87633 23.4653C7.8567 23.4752 7.83706 23.485 7.81739 23.4948L7.7732 23.5194C7.04606 23.9468 6.80043 24.104 6.45161 24.3496C6.14703 24.5609 5.85224 24.7869 5.57221 25.0374C5.23323 25.3371 4.90408 25.6761 4.69772 26.1084C4.59456 26.3295 4.54052 26.5604 4.54052 26.7913Z" fill="white"/>
<path d="M4.82471 18.128C7.05709 17.9331 9.20242 17.5284 11.3321 17.0699C13.4567 16.6016 15.5505 16.0602 17.6137 15.4455C19.6768 14.826 21.7244 14.1674 23.7363 13.4259C25.7583 12.7039 27.7496 11.9037 29.7306 11.0841L29.9062 11.0074C29.8428 11.0331 30.0721 10.9359 30.1892 10.8897C30.3503 10.8329 30.5018 10.7763 30.6729 10.7243C31.0099 10.6154 31.372 10.5208 31.7389 10.4262C32.478 10.2467 33.2464 10.0715 34.0352 9.94521C35.6078 9.65826 37.2404 9.4538 38.9033 9.27832C39.7319 9.18082 40.5711 9.1175 41.4148 9.02955C42.2584 8.94654 43.1127 8.89281 43.9708 8.79479C44.8298 8.74097 45.6931 8.65271 46.566 8.55934C47.4395 8.48564 48.3175 8.38729 49.2093 8.25431C48.397 7.87003 47.5756 7.52518 46.7398 7.20518C45.9042 6.90482 45.0545 6.63416 44.2003 6.37835C42.4874 5.91591 40.7413 5.5179 38.9542 5.30729C37.1714 5.06223 35.3569 4.97985 33.5054 5.05043C32.5825 5.1004 31.6455 5.185 30.6949 5.33371C30.2196 5.42034 29.7397 5.51199 29.2455 5.63335C29.0008 5.69151 28.7466 5.76952 28.4923 5.83769C28.204 5.93591 28.023 5.97826 27.5694 6.18247L27.745 6.10579C25.7385 6.87178 23.7471 7.66211 21.7816 8.53058C19.8108 9.37949 17.8709 10.3065 15.9464 11.2775C14.0219 12.2485 12.1332 13.2975 10.2702 14.4197C8.41236 15.5517 6.57495 16.7325 4.82471 18.128Z" fill="#03CEDA"/>
<path d="M5.92334 11.583C7.38677 11.3182 8.76156 10.9008 10.1176 10.4475C11.469 9.98523 12.7877 9.46915 14.0784 8.9037C15.3645 8.32924 16.6411 7.73231 17.8804 7.07258C19.129 6.42629 20.345 5.73072 21.5516 5.01264L21.9374 4.78412L21.6906 4.92421C21.6054 4.97548 21.7398 4.88713 21.7937 4.85903C21.8745 4.81689 21.9598 4.77014 22.0542 4.72779C22.243 4.63852 22.4455 4.55807 22.6571 4.47749C23.0846 4.30716 23.5397 4.15903 24.0133 4.02873C24.9554 3.75005 25.9621 3.5337 26.9918 3.33963C28.0213 3.1365 29.0833 2.97812 30.1628 2.78774C30.7053 2.71515 31.252 2.61985 31.8074 2.51985C32.3589 2.43353 32.9234 2.33339 33.492 2.20146C32.9713 1.94748 32.4417 1.7163 31.9083 1.50784C31.3704 1.31304 30.8237 1.14105 30.2682 0.982791C29.158 0.693453 28.0261 0.467911 26.8602 0.374327C25.6984 0.258023 24.5117 0.273525 23.3042 0.40717C22.6984 0.480827 22.0888 0.599851 21.4707 0.755261C21.1596 0.846595 20.8486 0.942454 20.529 1.06112C20.3669 1.12275 20.205 1.19344 20.0386 1.26421C19.8454 1.35808 19.7373 1.39615 19.4189 1.59181L19.5578 1.50338C18.3278 2.17655 17.1026 2.86322 15.9099 3.60373C14.708 4.33078 13.548 5.12508 12.3928 5.93292C11.2468 6.75415 10.1289 7.62478 9.039 8.5493C7.95852 9.49177 6.89659 10.4611 5.92334 11.583Z" fill="white"/>
<path d="M8.40211 41.5801H0L0.153814 41.3832H1.44201C2.19185 41.3832 2.57639 41.282 2.74462 40.8301L5.67672 32.7311C5.84494 32.2648 5.98916 32.0533 6.27274 31.8946C4.35967 31.9521 3.8069 32.0341 3.4416 32.1205L3.86458 31.6687H10.4209L10.2671 31.8657H8.97892C8.22907 31.8657 7.81569 31.9666 7.64744 32.4184L4.70096 40.5178C4.53271 40.9841 4.43178 41.1955 4.13376 41.3542H5.51328C7.79166 41.3542 8.82991 40.3783 10.6564 38.6913L10.6997 38.7202L8.9741 41.5801L8.77702 41.8925L8.40211 41.5801Z" fill="white"/>
<path d="M21.2022 41.3831L21.0484 41.5801H16.5445L16.6983 41.3831C17.8183 41.3831 18.3855 41.1283 18.3711 39.8834L18.3422 38.7057H13.7662H13.5547L12.6463 39.8834C11.7138 41.0993 12.0791 41.3831 13.1414 41.3831L12.9731 41.5801H10.0122L10.1804 41.3831C11.185 41.3831 11.3965 41.0993 12.3483 39.8689L13.2279 38.7201C12.281 38.7487 11.5263 38.8593 11.0889 38.9605L11.5552 38.4509H13.4394L18.2701 32.1493L20.1687 31.2695C20.1255 31.3563 20.1111 31.5099 20.1255 32.2454L20.2649 39.7966C20.2985 41.0993 20.2841 41.3831 21.2022 41.3831ZM18.3422 38.4509L18.2268 32.6012L13.7374 38.4509H18.3422ZM17.9481 32.303L18.2749 32.1493L17.7798 32.774L17.9481 32.303Z" fill="white"/>
<path d="M35.4778 41.5801H27.0806L27.2344 41.3832H28.5226C29.2724 41.3832 29.657 41.282 29.8252 40.8301L32.7573 32.7311C32.9254 32.2648 33.0697 32.0533 33.3534 31.8946C31.4401 31.9521 30.8874 32.0341 30.5221 32.1205L30.9453 31.6687H37.5016L37.3477 31.8657H36.0594C35.3097 31.8657 34.8962 31.9666 34.7281 32.4184L31.7814 40.5178C31.6133 40.9841 31.5124 41.1955 31.2142 41.3542H32.5889C34.8676 41.3542 35.9055 40.3783 37.7323 38.6913L37.7754 38.7202L36.0498 41.5801L35.8528 41.8925L35.4778 41.5801Z" fill="white"/>
<path d="M47.3747 31.6687L47.2208 31.8657H45.9325C45.1828 31.8657 44.7693 31.9666 44.6012 32.4184L41.6545 40.5178C41.4864 40.9841 41.3566 41.1955 41.0874 41.3542C43.0006 41.2964 43.5678 41.2148 43.9331 41.1283L43.5099 41.5802H36.9536L37.1075 41.3832H38.3958C39.1455 41.3832 39.5301 41.282 39.6982 40.8301L42.6304 32.7311C42.7988 32.2648 42.9428 32.0533 43.212 31.8946C41.2991 31.9521 40.7605 32.0341 40.3952 32.1205L40.8184 31.6687H47.3747Z" fill="white"/>
<path d="M56.1854 37.6145C56.1854 39.6527 52.758 41.5802 50.1673 41.5802H47.8312V41.5657C47.7881 41.5801 47.7303 41.5802 47.6776 41.5802H44.4761L44.63 41.3832H45.6634C46.4134 41.3832 46.6969 41.282 46.8652 40.8301L49.8836 32.4762C50.0809 31.938 49.7827 31.8946 49.033 31.9235C48.1535 31.9666 47.7737 32.063 47.5044 32.1205L47.9273 31.6687H53.2676C55.277 31.6687 56.8776 31.9666 56.8776 33.1298C56.8776 34.2786 55.2911 35.4949 53.8204 35.8506C55.2625 35.985 56.1854 36.538 56.1854 37.6145ZM54.3155 37.6C54.3155 36.6916 53.8059 36.0428 52.0228 36.0428H51.3978L51.4701 35.8024H52.7725C54.0752 35.8024 54.9405 34.5576 54.9405 33.3079C54.9405 32.457 54.4164 31.8898 53.1426 31.8898H51.9938L48.8216 40.513C48.7637 40.6669 48.6917 40.8398 48.5957 41.0082C49.2637 41.2196 49.8836 41.335 50.4222 41.335C52.7149 41.3398 54.3155 39.5564 54.3155 37.6Z" fill="white"/>
<path d="M67.2315 34.1154L67.1884 34.144C66.6788 32.6012 66.3664 31.8898 64.5975 31.8898H62.7854L61.1414 36.5091H62.3432C64.0544 36.5091 64.8523 36.1292 65.655 34.8651L64.3957 38.3645C64.4966 37.1196 63.9869 36.735 62.271 36.735H61.055L59.7092 40.5178C59.6083 40.8015 59.4544 41.1428 59.1851 41.3542H61.1944C62.9776 41.3542 64.1553 40.4603 65.9673 38.6048L65.9963 38.6479L64.2273 41.5801L64.0303 41.8925L63.6601 41.5801H55.3589L55.5128 41.3832H56.5462C57.2962 41.3832 57.5797 41.282 57.7481 40.8301L60.7712 32.4762C60.9685 31.938 60.6703 31.8946 59.9206 31.9235C59.0408 31.9666 58.6613 32.063 58.392 32.1205L58.8149 31.6687H67.6113L67.2315 34.1154Z" fill="white"/>
<path d="M78.5172 43.1952L78.3633 43.325C75.7868 44.0316 74.5949 43.6084 73.9316 40.9889L73.2536 38.297C73.0566 37.6048 72.6578 37.5184 71.8648 37.5184L71.9512 37.3503C74.8976 37.3503 76.3157 35.9756 76.4982 33.9229C76.6136 32.678 76.2148 31.8994 74.3738 31.8994H73.1431L69.9997 40.5226C69.8313 40.9889 69.7015 41.2003 69.4181 41.359C71.0476 41.3012 71.6148 41.2196 71.9801 41.1331L71.5569 41.585H65.6353L65.7889 41.3877H66.7214C67.4714 41.3877 67.8702 41.2868 68.0386 40.835L71.0428 32.4762C71.2253 31.9811 70.9033 31.9091 70.163 31.9235C69.341 31.9666 68.9325 32.063 68.6633 32.1205L69.0865 31.6687H75.3735C77.4548 31.6687 78.5316 32.3079 78.4163 33.6777C78.2768 35.3217 76.4886 36.538 74.7199 37.1482L75.4841 40.0515C76.1377 42.4596 76.9452 43.6229 78.5172 43.1952Z" fill="white"/>
<path d="M88.1212 34.5865H88.0636C88.9432 32.6588 88.1935 31.8801 86.8043 31.8801H86.1648L83.1895 40.0085C82.8338 40.9841 82.7522 41.1955 82.0118 41.3542C83.3579 41.2244 84.0642 41.1714 84.7182 41.0561L83.7278 41.5802H78.854L79.0076 41.3832H79.5892C80.2142 41.3832 80.8486 41.282 81.3148 40.0085L84.2901 31.8801C82.2377 31.8946 81.1612 32.6732 79.6567 34.5865H79.5989L81.113 31.6687H90.063L88.1212 34.5865Z" fill="white"/>
<path d="M99.167 34.1154L99.1236 34.144C98.6143 32.6012 98.3017 31.8898 96.533 31.8898H94.7206L93.077 36.5091H94.2785C95.9944 36.5091 96.7875 36.1292 97.5902 34.8651L96.3309 38.3645C96.4321 37.1196 95.9224 36.735 94.2065 36.735H92.9902L91.6444 40.5178C91.5435 40.8015 91.3896 41.1428 91.1206 41.3542H93.1297C94.9131 41.3542 96.0905 40.4603 97.9029 38.6048L97.9315 38.6479L96.1628 41.5801L95.9658 41.8925L95.5956 41.5801H87.2944L87.4484 41.3832H88.4818C89.2315 41.3832 89.5152 41.282 89.6833 40.8301L92.7116 32.4762C92.9086 31.938 92.6107 31.8946 91.8607 31.9235C90.9812 31.9666 90.6014 32.063 90.3324 32.1205L90.7553 31.6687H99.5514L99.167 34.1154Z" fill="white"/>
<path d="M28.3474 49.9135L26.6279 46.7915H26.6024V49.9135H25.9656V45.5479H26.6534L28.3283 48.5747H28.3538V45.5479H28.9842V49.9135H28.3474Z" fill="white"/>
<path d="M29.8557 49.9135V45.5479H32.3778V46.1126H30.5115V47.4262H32.123V47.9909H30.5115V49.3488H32.3778V49.9135H29.8557Z" fill="white"/>
<path d="M36.0616 49.9135L35.2848 46.5759H35.2592L34.4824 49.9135H33.6544L32.6926 45.5479H33.3613L34.0875 49.0888H34.1191L34.9282 45.5479H35.6414L36.4565 49.0888H36.4947L37.1953 45.5479H37.8514L36.8896 49.9135H36.0616Z" fill="white"/>
<path d="M41.9361 49.8756C41.8217 49.9009 41.6771 49.922 41.503 49.9392C41.3334 49.9561 41.1741 49.9645 41.0256 49.9645C40.5626 49.9645 40.2229 49.9052 40.0066 49.7868C39.7943 49.6642 39.6521 49.4524 39.5798 49.1521C39.5075 48.8476 39.4717 48.3738 39.4717 47.7308C39.4717 47.0922 39.5075 46.6205 39.5798 46.3157C39.6521 46.0112 39.7943 45.7997 40.0066 45.6814C40.2229 45.5585 40.5626 45.4973 41.0256 45.4973C41.1783 45.4973 41.3376 45.5079 41.503 45.5289C41.6729 45.5458 41.8108 45.5693 41.9171 45.5988V46.119C41.6581 46.0811 41.4138 46.0621 41.1846 46.0621C40.8364 46.0621 40.5946 46.0958 40.4587 46.1636C40.3229 46.2314 40.2337 46.3729 40.1913 46.5886C40.1488 46.8045 40.1274 47.1853 40.1274 47.7308C40.1274 48.2765 40.1488 48.6573 40.1913 48.8729C40.2337 49.0889 40.3229 49.2305 40.4587 49.2982C40.5946 49.366 40.8364 49.3997 41.1846 49.3997C41.4819 49.3997 41.7325 49.3808 41.9361 49.3425V49.8756Z" fill="white"/>
<path d="M44.0395 49.9645C43.5344 49.9645 43.1732 49.9052 42.957 49.7868C42.7404 49.6684 42.6024 49.4654 42.5428 49.1777C42.4877 48.8901 42.46 48.4076 42.46 47.7308C42.46 47.0539 42.4877 46.5717 42.5428 46.2841C42.6024 45.9964 42.7404 45.7934 42.957 45.675C43.1732 45.5564 43.5344 45.4973 44.0395 45.4973C44.5488 45.4973 44.9121 45.5564 45.1284 45.675C45.3449 45.7934 45.4829 45.9964 45.5425 46.2841C45.6019 46.5717 45.6317 47.0539 45.6317 47.7308C45.6317 48.4076 45.6019 48.8901 45.5425 49.1777C45.4829 49.4654 45.3449 49.6684 45.1284 49.7868C44.9121 49.9052 44.5488 49.9645 44.0395 49.9645ZM44.0395 49.3997C44.3579 49.3997 44.5744 49.3723 44.6892 49.3172C44.8037 49.2621 44.8781 49.1289 44.9121 48.9175C44.95 48.7018 44.9693 48.3061 44.9693 47.7308C44.9693 47.1555 44.95 46.7621 44.9121 46.5506C44.8781 46.335 44.8037 46.1994 44.6892 46.1446C44.5744 46.0895 44.3579 46.0621 44.0395 46.0621C43.7211 46.0621 43.5045 46.0895 43.3898 46.1446C43.2795 46.1994 43.2051 46.335 43.1669 46.5506C43.1329 46.7621 43.116 47.1555 43.116 47.7308C43.116 48.3061 43.1329 48.7018 43.1669 48.9175C43.2051 49.1289 43.2795 49.2621 43.3898 49.3172C43.5045 49.3723 43.7211 49.3997 44.0395 49.3997Z" fill="white"/>
<path d="M48.7596 49.9135L47.04 46.7915H47.0147V49.9135H46.3779V45.5479H47.0656L48.7406 48.5747H48.7659V45.5479H49.3966V49.9135H48.7596Z" fill="white"/>
<path d="M52.612 49.8756C52.4972 49.9009 52.3529 49.922 52.1788 49.9392C52.009 49.9561 51.8496 49.9645 51.7011 49.9645C51.2385 49.9645 50.8987 49.9052 50.6822 49.7868C50.4698 49.6642 50.3276 49.4524 50.2554 49.1521C50.1834 48.8476 50.1472 48.3738 50.1472 47.7308C50.1472 47.0922 50.1834 46.6205 50.2554 46.3157C50.3276 46.0112 50.4698 45.7997 50.6822 45.6814C50.8987 45.5585 51.2385 45.4973 51.7011 45.4973C51.8538 45.4973 52.0132 45.5079 52.1788 45.5289C52.3487 45.5458 52.4867 45.5693 52.5927 45.5988V46.119C52.3337 46.0811 52.0897 46.0621 51.8605 46.0621C51.5123 46.0621 51.2701 46.0958 51.1343 46.1636C50.9984 46.2314 50.9093 46.3729 50.8668 46.5886C50.8243 46.8045 50.8032 47.1853 50.8032 47.7308C50.8032 48.2765 50.8243 48.6573 50.8668 48.8729C50.9093 49.0889 50.9984 49.2305 51.1343 49.2982C51.2701 49.366 51.5123 49.3997 51.8605 49.3997C52.1575 49.3997 52.4081 49.3808 52.612 49.3425V49.8756Z" fill="white"/>
<path d="M53.2568 49.9135V45.5479H55.7788V46.1126H53.9129V47.4262H55.5243V47.9909H53.9129V49.3488H55.7788V49.9135H53.2568Z" fill="white"/>
<path d="M56.4568 45.5479H58.1128C58.4438 45.5479 58.6944 45.6051 58.8643 45.7192C59.0381 45.8334 59.1529 45.99 59.208 46.1888C59.2634 46.3834 59.2908 46.6394 59.2908 46.9566C59.2908 47.2611 59.2634 47.5129 59.208 47.7117C59.1529 47.9063 59.0381 48.0629 58.8643 48.1813C58.6944 48.2997 58.4417 48.359 58.1062 48.359H57.1128V49.9135H56.4568V45.5479ZM57.8899 47.8006C58.1149 47.8006 58.2803 47.7753 58.3866 47.7244C58.4926 47.6695 58.5607 47.587 58.5902 47.4771C58.62 47.3626 58.6348 47.1894 58.6348 46.9566C58.6348 46.7241 58.62 46.5527 58.5902 46.4427C58.5607 46.3286 58.4926 46.246 58.3866 46.1951C58.2845 46.1403 58.1212 46.1126 57.8962 46.1126H57.1128V47.8006H57.8899Z" fill="white"/>
<path d="M60.6635 49.9135V46.1316H59.53V45.5479H62.4595V46.1316H61.3258V49.9135H60.6635Z" fill="white"/>
<path d="M64.555 49.9135V46.2967L63.8035 46.6457V46.062L64.7462 45.5479H65.211V49.9135H64.555Z" fill="white"/>
<path d="M67.7775 49.9135V48.9301H65.854V48.4352L67.2552 45.5479H67.9621L66.5609 48.3717H67.7775L67.9302 46.9439H68.4332V48.3717H68.9618V48.9301H68.4332V49.9135H67.7775Z" fill="white"/>
</g>
<defs>
<clipPath id="clip0">
<rect width="122.289" height="50" fill="white"/>
</clipPath>
</defs>
</svg>
